<svg xmlns="http://www.w3.org/2000/svg" aria-label="Ruby Developer Meeting Archive" viewBox="0 0 512 512">
  <g>
    <g>
      <path fill="#fddca5" d="M209 469.958c-51.254-.723-54.892-.893-61.085-2.853-10.417-3.296-19.605-10.583-25.459-20.193-6.797-11.158-6.425-.115-6.441-191.162L116 83H80.223c-39.727 0-39.281.071-41.112-6.56-.732-2.65-.539-5.047.791-9.844C43.32 54.276 51.427 43.884 61.49 38.93l6.385-3.143 154.88.156c128.574.13 156.018.394 161.582 1.559 17.523 3.666 32.102 17.096 39.043 35.965.797 2.167 1.259 52.125 1.618 175.033l.502 172 19 .5c20.304.534 23.471 1.265 26.94 6.217 2.216 3.165 1.944 6.802-1.072 14.336-6.373 15.92-19.669 24.072-45.054 27.623-9.832 1.375-140.788 1.849-216.314.782z"/>
      <path fill="#edcc98" d="M211 469.023c-18.84-.334-29.434-.884-29.316-1.523.101-.55 4.286-3.068 9.3-5.595 14.018-7.068 20.953-14.813 25.14-28.08 2.463-7.804 5.594-11.494 10.54-12.422 1.893-.355 55.505-.453 119.139-.219 109.893.405 115.889.52 119.522 2.27 7.476 3.605 8.381 8.955 3.369 19.904-7.25 15.834-22.345 23.259-52.09 25.619-13.028 1.034-148.157 1.064-205.604.046zm-8.218-98.576c-12.543-3.04-23.636-11.04-28.795-20.766-1.38-2.601-3.343-4.805-4.55-5.108-1.168-.293-3.32-1.728-4.78-3.19-3.567-3.566-3.632-9.07-.157-13.2 2.39-2.842 2.5-3.55 2.5-16.195v-13.224l-3-3.417c-4.298-4.895-3.63-11.394 1.517-14.766 1.723-1.13 2.365-2.824 2.917-7.698.389-3.438 1.737-9.495 2.997-13.461l2.29-7.211-3.788-.606c-6.526-1.043-10.365-7.934-7.504-13.468 2.195-4.244 4.57-5.257 13.8-5.89l7.976-.547 4.25-6.63c2.337-3.646 6.34-9.197 8.897-12.335 2.556-3.139 4.648-5.938 4.648-6.22 0-.284-7.214-.515-16.032-.515-21.195 0-24.968-1.55-24.968-10.26 0-2.351.79-4.135 2.578-5.816 2.576-2.423 2.59-2.424 31.375-2.929l28.798-.504 6.023-4.732c8.08-6.348 18.382-11.714 32.052-16.693 17.876-6.511 21.885-7.066 51.08-7.066 22.579 0 26.752.25 33.666 2.018 14.665 3.751 24.272 11.75 31.588 26.301l3.965 7.885-.445 26.303c-.244 14.466-.81 26.895-1.258 27.619-.447.724-1.312 8.08-1.92 16.345-1.013 13.748-.959 15.242.633 17.529 3.042 4.368 2.797 9.74-.63 13.813-2.309 2.743-2.61 4.347-4.008 21.326-1.588 19.278-2.464 20.456-12.36 16.623-3.057-1.184-6.79-2.552-8.292-3.04-2.597-.842-2.763-.781-3.325 1.215-3.815 13.564-11.656 22.658-24.839 28.802-11.034 5.144-14.52 5.66-39.646 5.876-11.962.102-23.513-.113-25.668-.478z"/>
      <path fill="#e3b18a" d="M183.516 468.025c-.393-.635 1.664-2.1 5.055-3.599 15.416-6.817 24.208-16.423 28.99-31.672.99-3.16 2.882-6.76 4.203-8l2.401-2.254 119.168.041c110.986.04 119.39.16 122.408 1.771 1.782.951 3.996 2.883 4.92 4.293 1.59 2.426 1.562 2.924-.509 9.355-5.033 15.626-14.456 23.278-34.778 28.24-8.807 2.15-9.79 2.168-130.035 2.53-85.397.258-121.357.05-121.823-.705zM211 362.972c-13.275-1.326-21.084-5.608-29.674-16.273-1.637-2.032-3.067-2.699-5.782-2.699-10.958 0-16.752-9.281-9.568-15.326 1.637-1.378 4.337-2.803 6-3.169l3.024-.664v-9.795c0-5.388.277-11.183.616-12.877.591-2.955.437-3.127-3.75-4.191-5.041-1.281-7.074-2.604-8.703-5.662-3.028-5.685 1.162-11.538 9.113-12.73l4.724-.709v-4.359c0-2.397 1.385-8.284 3.079-13.08 3.507-9.938 3.323-10.398-4.18-10.423-6.475-.021-10.71-1.75-12.43-5.074-2.07-4.006-1.856-5.477 1.323-9.034 2.78-3.11 2.847-3.127 16.01-3.86 7.27-.404 13.37-.918 13.554-1.141.184-.223 2.158-3.106 4.387-6.406 2.229-3.3 6.812-8.873 10.186-12.385 3.374-3.512 5.858-6.662 5.52-7-.338-.338-11.117-.84-23.953-1.115-23.003-.493-23.377-.535-25.918-2.924-3.622-3.407-3.595-9.13.057-12.003 2.499-1.966 3.903-2.076 27.25-2.124 13.538-.028 29.34-.437 35.115-.908 9.992-.816 11.008-1.118 21-6.248 13.652-7.008 30.67-12.625 42.331-13.97 5.485-.633 17.607-.814 30.169-.452 22.21.64 27.2 1.506 34.973 6.06C359.728 174.925 368 183.184 368 184.94c0 .541 1.717.985 3.815.986 2.098.001 4.63.812 5.624 1.803 2.447 2.437 2.43 7.611-.039 11.45l-1.9 2.952-.5 14.197c-.462 13.126-.378 14.298 1.088 15.192 2.885 1.76 4.292 4.59 3.915 7.877-.472 4.102-2.304 5.513-9.746 7.504L364 248.574l-.991 14.07c-.545 7.74-1.408 16.275-1.917 18.969-.51 2.694-.674 5.791-.365 6.883.31 1.092.138 2.319-.382 2.726-.52.407-7.292 1.414-15.05 2.237-7.759.824-21.846 2.125-31.305 2.891-63.162 67.173-96.801 67.24-102.989 66.622Z"/>
      <path fill="#df974c" d="M185 467.551c0-.247 2.813-1.807 6.25-3.467 11.913-5.754 21.57-15.08 24.681-23.837 4.61-12.973 5.299-14.314 8.097-15.761 2.493-1.29 18.238-1.485 119.172-1.48 76.625.004 117.564.356 120.005 1.034 5.032 1.398 8.137 5.463 7.442 9.745-.911 5.617-5.56 14.521-9.948 19.05-7.628 7.876-19.945 12.472-38.148 14.234-9.014.873-237.551 1.337-237.551.482Zm19.801-107.504c-6.77-1.248-14.472-5.795-18.665-11.018-4.726-5.887-4.904-5.996-9.82-6.014-7.873-.028-12.316-3.07-12.316-8.431 0-4.204 2.405-6.346 8.372-7.461 2.596-.485 4.884-1.049 5.084-1.253.325-.33.896-24.701.645-27.49-.056-.616-2.12-1.347-4.587-1.625-8.133-.917-12.36-5.936-9.501-11.279 1.562-2.92 3.111-3.636 9.487-4.387 4.93-.58 5.013-.648 5.942-4.839.673-3.036 1.446-4.25 2.705-4.25 1.26 0 1.938-1.068 2.378-3.75.34-2.063 1.485-6.745 2.546-10.405 1.06-3.66 1.929-6.882 1.929-7.16 0-.276-4.765-.656-10.588-.844-10.172-.328-10.684-.451-13-3.147-3.045-3.542-3.044-5.847 0-9.388 2.41-2.803 2.43-2.807 17.928-3.306l15.516-.5 5.17-6.835c2.843-3.76 8.115-9.957 11.715-13.773 3.6-3.817 6.22-7.266 5.821-7.665-.398-.4-12.792-.952-27.54-1.227-24.564-.458-26.994-.66-28.92-2.405-1.437-1.303-2.102-3.114-2.102-5.727 0-6.588-.03-6.582 40.25-7.15 35.101-.495 35.75-.469 35.75 1.47 0 1.905.132 1.893 3.75-.344C260.689 178.748 272.762 174 283.04 174c5.56 0 5.921-.143 5.698-2.25l-.238-2.25 25.5-.288c17.479-.197 26.916-.12 30.777.254 12.465 1.206 17.9 3.186 22.989 8.382l4.234 4.327v17.64c0 9.701-.309 21.638-.687 26.526-.632 8.193-.536 8.985 1.236 10.17 2.988 2 3.88 3.942 3.604 7.851-.293 4.17-2.406 5.895-8.703 7.108-4.37.841-4.391.883-5.612 10.703-.678 5.446-1.443 13.21-1.7 17.253l-.625 9.617c-.67 10.304-.49 10.412-15.094 12.778-5.027.815-15.241 2.006-22.697 2.648a8779.65 8779.65 0 0 1-29.661 2.484c-7.383 55.833-80.773 55.935-87.26 53.094Z"/>
      <path fill="#e36255" d="M210.73 359.928c-10.245-1.038-18.148-4.32-22.412-9.303-1.55-1.812-3.828-4.493-5.061-5.96-1.716-2.038-3.15-2.665-6.101-2.665-7.683 0-12.156-2.893-12.156-7.862 0-2.614 4.56-6.138 7.944-6.138 5.764 0 6.141-1.1 5.835-17.008L178.5 296.5l-2.5-.317c-6.82-.863-9.781-2.24-10.965-5.099C162.97 286.101 166.566 282 173 282c4.717 0 7-1.624 7-4.978 0-1.778.78-3.455 2.006-4.314 1.319-.923 2.375-3.4 3.082-7.229.593-3.203 1.94-8.013 2.995-10.688 1.054-2.676 1.917-5.073 1.917-5.328 0-.255-2.813-.496-6.25-.536-9.18-.107-16.8-1.394-17.822-3.009-.493-.78-.904-2.645-.913-4.145-.026-4.673 2.926-5.66 18.516-6.198l13.969-.481 4.783-6.297c2.63-3.463 8.573-10.404 13.205-15.424l8.422-9.127-4.705-.596c-2.588-.328-15.28-.892-28.205-1.253-25.659-.716-27-1.04-27-6.529 0-5.443 1.172-5.625 39.25-6.094 19.113-.235 34.75-.187 34.75.107s-1.688 2.287-3.75 4.429l-3.75 3.894 6.5-4.472C254.713 181.544 272.452 174 283.397 174c4.936 0 5.603-.238 5.603-2 0-1.95.667-2 26.525-2 23.551 0 27.135.214 31.963 1.911 7.094 2.494 13.453 7.132 17.344 12.652 1.996 2.832 3.881 4.437 5.213 4.437 2.37 0 6.096 1.762 7.19 3.4 2.232 3.344-.465 10.6-3.941 10.6-2.379 0-3.108 3.183-3.777 16.5l-.704 14 4.343 2c3.999 1.841 4.368 2.33 4.647 6.156.247 3.39-.117 4.45-1.973 5.75-1.251.877-3.245 1.594-4.43 1.594-1.185 0-2.602.562-3.147 1.25-.546.687-1.522 7.54-2.17 15.229-1.089 12.927-1.046 14.075.561 15.25.956.699 3.002 1.271 4.547 1.271s3.293.588 3.884 1.307c2.244 2.73.222 9.012-3.278 10.185-.933.313-3.29.82-5.238 1.128-1.948.307-3.731 1.039-3.963 1.625-.23.586-.853 4.18-1.382 7.986-1.604 11.539-6.063 24.08-10.068 28.31-5.589 5.903-12.573 9.843-20.272 11.44-7.023 1.457-40.266 1.826-49.787.554z"/>
      <path fill="#d1863c" d="M222.904 360.58c-.222-.218-4.904-.919-10.404-1.56-12.518-1.456-18.484-4.08-25.92-11.397-4.91-4.834-6.244-5.623-9.497-5.623-7.61 0-12.083-2.91-12.083-7.862 0-2.614 4.56-6.138 7.944-6.138 5.534 0 6.148-1.414 6.977-16.045.419-7.4.596-13.923.394-14.494-.202-.572-1.818-1.149-3.591-1.282-6.9-.52-10.442-2.084-11.724-5.18-1.041-2.513-.979-3.382.394-5.477 1.576-2.406 2.657-2.867 9.106-3.889 5.551-.879 6.656-1.268 7.506-2.643.964-1.56 2.574 1.72 5.555 11.318 3.117 10.039 1.146 9.719 26.057 4.226 12.035-2.654 23.278-5.384 24.984-6.067 4.282-1.713 55.816-49.709 57.698-53.735 1.97-4.216 14.7-45.008 14.7-47.106 0-1.755-6.695-7.087-11.5-9.158-3.81-1.643-8.016-6.03-6.613-6.898.571-.353 11.518-.603 24.326-.556 20.45.076 24.04.331 29.468 2.095 7.35 2.388 13.452 6.581 16.56 11.379 1.627 2.513 3.238 3.669 5.759 4.132 6.904 1.269 8.96 3.102 8.985 8.008.015 3.125-1.334 4.864-5.311 6.847-1.834.915-2.341 2.768-3.842 14.04-2.28 17.139-2.363 16.129 1.366 16.875 5.686 1.137 7.802 3.2 7.802 7.61 0 4.64-2.471 6.814-8.225 7.235-4.396.322-4.512.72-5.424 18.74-.53 10.469-.398 12.714.753 12.817 4.883.44 10.469 2.271 11.587 3.8 1.852 2.533 1.623 6.814-.467 8.705-1.563 1.415-3.955 2.05-11.724 3.117-1.62.223-2.126 1.302-2.663 5.68-1.56 12.718-3.09 37.92-2.52 41.51.77 4.844.19 5.704-4.817 7.143-5.296 1.522-10.773 2.114-30.5 3.3-9.075.544-22.35 1.399-29.5 1.898-7.15.5-24.475 1.608-38.5 2.463-24.524 1.495-40.49 1.925-41.096 1.106z"/>
      <path fill="#b86c35" d="M210 358.816c-10.038-1.239-16.9-4.533-23.272-11.173-2.875-2.997-6.916-6.144-8.978-6.995-2.063-.85-3.76-1.906-3.774-2.347-.013-.44-.418-2.501-.9-4.579-.85-3.657-.77-3.823 2.523-5.199 2.005-.838 3.434-2.16 3.482-3.222.045-.99.42-7.426.833-14.301s.556-13.058.316-13.74c-.24-.68-2.212-1.717-4.383-2.301l-3.948-1.063.3-5.102c.293-4.972.404-5.137 4.301-6.468 2.2-.75 4.542-2.09 5.205-2.975 1.05-1.404 1.386-1.178 2.628 1.77.783 1.858 2.236 5.993 3.228 9.187 3.117 10.039 1.146 9.719 26.057 4.226 12.035-2.654 23.278-5.384 24.984-6.067 4.282-1.714 55.816-49.709 57.698-53.735 1.97-4.216 14.7-45.008 14.7-47.106 0-1.755-6.695-7.087-11.5-9.158-3.81-1.643-8.016-6.03-6.613-6.898.571-.353 11.518-.603 24.326-.556 20.45.076 24.04.331 29.468 2.095 7.328 2.38 13.44 6.572 16.56 11.355 1.437 2.205 3.964 4.176 6.949 5.42 4.115 1.716 4.775 2.415 5.394 5.714.63 3.353.395 4.007-2.163 6.047-2.698 2.151-2.972 3.08-4.583 15.571-.943 7.306-1.742 14.003-1.776 14.882-.036.925 1.599 2.347 3.88 3.375 4.552 2.053 4.917 2.71 4.303 7.734-.395 3.226-.927 3.863-4.1 4.91-2.004.662-3.87 1.14-4.145 1.062-1.102-.31-2 5.965-2.625 18.346l-.657 13.026 2.688 1.224c1.479.674 3.365 1.225 4.193 1.225 1.187 0 1.442 1.105 1.203 5.223-.301 5.211-.311 5.225-4.8 6.781-4.446 1.54-4.506 1.622-5.164 7.027-1.57 12.918-3.091 37.987-2.521 41.572.34 2.144.296 4.38-.132 6.636l-.713 3.76-14.322.48c-7.877.263-21.15 1.139-29.495 1.946-8.344.807-22.063 1.988-30.484 2.625-8.422.637-24.248 2.01-35.17 3.05-21.809 2.079-39.648 2.7-45.469 1.584z"/>
      <path fill="#e22426" d="M207 357.986c-6.385-.873-10.108-2.215-14.17-5.107-3.378-2.405-10.386-11.584-11.92-15.61-.617-1.623-.971-9.6-.854-19.269.11-9.075.145-20.55.079-25.5-.077-5.669.38-10.11 1.231-12l1.353-3 1.519 3.5c.835 1.925 2.33 6.114 3.323 9.308 3.117 10.039 1.146 9.719 26.057 4.226 12.035-2.654 23.278-5.384 24.984-6.067 4.282-1.713 55.816-49.709 57.698-53.735 1.97-4.216 14.7-45.008 14.7-47.106 0-1.755-6.695-7.087-11.5-9.158-3.81-1.643-8.016-6.03-6.613-6.898.571-.353 11.465-.584 24.21-.512 25.546.142 29.798.83 38.212 6.173 2.916 1.851 6.452 5.459 8.98 9.161l4.172 6.108-.006 12c-.009 18.253-1.297 42.58-2.464 46.5-.572 1.925-1.277 10.925-1.566 20-.288 9.075-1.156 21.225-1.927 27-1.763 13.205-3.505 34.488-3.519 43-.006 3.575-.37 7.066-.81 7.759-.956 1.507-6.995 2.024-79.17 6.778-56.67 3.732-61.428 3.894-72 2.449zm-9.5-67.488c-9.21-3.257-12.813-11.705-10.49-24.592 3.064-16.99 14.167-35.196 32.927-53.992 22.24-22.279 46.171-35.936 62.918-35.903 10.802.021 13.085.825 16.177 5.7 3.68 5.805 4.462 12.048 2.615 20.905-5.777 27.708-38.925 65.145-72.122 81.454-15.297 7.515-24.007 9.263-32.025 6.428z"/>
      <path fill="#cd231d" d="M207 357.983c-9.623-1.32-15.197-4.628-20.976-12.45-5.488-7.43-6.2-9.68-6.108-19.298.074-7.731.371-8.847 4.592-17.25 5.416-10.785 7.254-11.524 10.539-4.235 2.049 4.546 14.534 33.725 19.361 45.25 1.267 3.025 2.706 5.5 3.198 5.5s2.324-4.95 4.072-11c7.395-25.596 16.278-53.742 17.38-55.07 1.62-1.952 5.248-1.777 12.942.625 16.75 5.229 50.903 16.265 54.375 17.571 2.131.802 4.114 1.219 4.406.927.292-.292-3.332-15.949-8.053-34.792-10.064-40.169-10.145-37.951 1.446-39.333 4.03-.48 11.376-.97 16.326-1.09 19.442-.466 37.528-1.966 38.759-3.214.99-1.003.926-1.499-.313-2.441-15.74-11.982-46.81-38.057-47.222-39.63-.759-2.903.3-3.706 14.38-10.912l12.425-6.358 5.078 1.508c10.218 3.034 15.023 6.388 20.899 14.589 3.781 5.277 3.86 5.571 4.165 15.427.284 9.189-.547 20.049-2.301 30.098-.496 2.839-.366 3.71.474 3.191.778-.48 1.118.205 1.04 2.095-.07 1.69-.298 2.112-.573 1.059-.727-2.78-1.972-2.055-3.643 2.12-2.71 6.774-7.929 17.476-10.846 22.24-1.645 2.689-2.818 6.024-2.813 8 .005 1.865 1.596 14.19 3.536 27.39 5.84 39.748 6.532 47.256 4.625 50.259-.956 1.507-6.996 2.024-79.17 6.778-56.686 3.733-61.44 3.895-72 2.446zm145-10.799c0-1.165-36.812-33.617-38.583-34.013-.81-.18-4.497 2.33-8.194 5.578-7.976 7.008-17.89 14.607-24.471 18.757-2.612 1.647-4.75 3.292-4.75 3.656-.003.978 5.695 1.707 22.998 2.94 8.525.608 22.475 1.668 31 2.355 20.294 1.637 22 1.693 22 .727z"/>
      <path fill="#b7201b" d="M220 357.605c0-.767.85-4.254 1.89-7.75 1.039-3.495 2.123-7.255 2.41-8.355 1.485-5.716 15.703-50.836 16.163-51.296.805-.806.424-1.477 14.358 25.284 7.156 13.744 13.888 25.57 14.959 26.282 1.28.85 15.104 2.303 40.255 4.233 21.069 1.616 38.7 3.333 39.182 3.814.5.5-3.321 1.17-8.92 1.561-52.23 3.657-112.137 7.525-117.547 7.59-1.701.02-2.75-.5-2.75-1.363zm114.812-27.863L313.123 310.5l-8.576-34.5c-8.607-34.62-9.447-39-7.49-39 .582 0 12.507 6.844 26.5 15.21L349 267.42v4.147c0 2.281 2.036 17.825 4.524 34.54 4.705 31.613 5.67 41.939 3.976 42.529-.55.192-10.76-8.31-22.688-18.894z"/>
      <path fill="#8d0f04" d="M242.5 356.224c.55-.537 3.7-1.963 7-3.169s9.375-3.681 13.5-5.502c7.215-3.184 7.804-3.28 15.5-2.526 4.4.431 19.587 1.586 33.75 2.567 14.162.98 25.75 2.148 25.75 2.594 0 .447-.862.812-1.915.812-3.04 0-79.833 4.893-87.585 5.58-4.565.406-6.652.282-6-.356zm93.365-27.287c-11.2-10.028-20.707-18.809-21.124-19.513-1-1.685-5.737-20.084-10.15-39.424-1.945-8.525-4.449-18.649-5.564-22.497-1.115-3.848-2.027-7.11-2.027-7.25 0-1.197 5.29 1.637 25.867 13.854l23.76 14.108 1.648 11.643c.906 6.403 3.447 23.787 5.648 38.63 2.2 14.844 3.62 27.37 3.154 27.835-.465.465-10.01-7.358-21.212-17.386z"/>
    </g>
  </g>
</svg>
